<svg width="36" height="36" viewBox="0 0 36 36" fill="none" xmlns="http://www.w3.org/2000/svg">
<path d="M0.49249 1.73999C0.49249 1.40847 0.624186 1.09053 0.858607 0.856106C1.09303 0.621686 1.41097 0.48999 1.74249 0.48999H2.83749C4.65499 0.48999 5.69999 1.67249 6.30499 2.85249C6.71749 3.65999 7.01499 4.64499 7.26249 5.49999H33C33.3863 5.5001 33.7673 5.58974 34.1131 5.76185C34.459 5.93396 34.7602 6.18387 34.9932 6.49198C35.2262 6.80008 35.3847 7.15798 35.4561 7.53761C35.5276 7.91724 35.5101 8.30826 35.405 8.67999L31.665 21.8675C31.3675 22.9138 30.7369 23.8345 29.8689 24.49C29.0009 25.1455 27.9427 25.5001 26.855 25.5H14.1575C13.0607 25.5004 11.9942 25.1401 11.1223 24.4746C10.2504 23.8092 9.6215 22.8755 9.33249 21.8175L7.72749 15.93C7.71829 15.9036 7.70995 15.8769 7.70249 15.85L5.12499 7.10749L4.87499 6.26499C4.62499 5.39999 4.40499 4.63499 4.07499 3.99249C3.67749 3.21749 3.31249 2.99249 2.83499 2.99249H1.73999C1.40847 2.99249 1.09053 2.86079 0.856106 2.62637C0.621686 2.39195 0.48999 2.07401 0.48999 1.74249L0.49249 1.73999ZM10.1125 15.175L11.745 21.165C11.8897 21.6938 12.2043 22.1603 12.6402 22.4928C13.0761 22.8253 13.6092 23.0053 14.1575 23.005H26.8575C27.4011 23.0044 27.9297 22.8267 28.3632 22.4988C28.7968 22.1708 29.1116 21.7104 29.26 21.1875L33 7.99999H7.99999L10.1125 15.1725V15.175ZM18 31.7475C18 32.7421 17.6049 33.6959 16.9016 34.3991C16.1984 35.1024 15.2446 35.4975 14.25 35.4975C13.2554 35.4975 12.3016 35.1024 11.5983 34.3991C10.8951 33.6959 10.5 32.7421 10.5 31.7475C10.5 30.7529 10.8951 29.7991 11.5983 29.0958C12.3016 28.3926 13.2554 27.9975 14.25 27.9975C15.2446 27.9975 16.1984 28.3926 16.9016 29.0958C17.6049 29.7991 18 30.7529 18 31.7475V31.7475ZM15.5 31.7475C15.5 31.416 15.3683 31.098 15.1339 30.8636C14.8995 30.6292 14.5815 30.4975 14.25 30.4975C13.9185 30.4975 13.6005 30.6292 13.3661 30.8636C13.1317 31.098 13 31.416 13 31.7475C13 32.079 13.1317 32.397 13.3661 32.6314C13.6005 32.8658 13.9185 32.9975 14.25 32.9975C14.5815 32.9975 14.8995 32.8658 15.1339 32.6314C15.3683 32.397 15.5 32.079 15.5 31.7475ZM30.5 31.7475C30.5 32.7421 30.1049 33.6959 29.4016 34.3991C28.6984 35.1024 27.7446 35.4975 26.75 35.4975C25.7554 35.4975 24.8016 35.1024 24.0983 34.3991C23.3951 33.6959 23 32.7421 23 31.7475C23 30.7529 23.3951 29.7991 24.0983 29.0958C24.8016 28.3926 25.7554 27.9975 26.75 27.9975C27.7446 27.9975 28.6984 28.3926 29.4016 29.0958C30.1049 29.7991 30.5 30.7529 30.5 31.7475V31.7475ZM28 31.7475C28 31.416 27.8683 31.098 27.6339 30.8636C27.3995 30.6292 27.0815 30.4975 26.75 30.4975C26.4185 30.4975 26.1005 30.6292 25.8661 30.8636C25.6317 31.098 25.5 31.416 25.5 31.7475C25.5 32.079 25.6317 32.397 25.8661 32.6314C26.1005 32.8658 26.4185 32.9975 26.75 32.9975C27.0815 32.9975 27.3995 32.8658 27.6339 32.6314C27.8683 32.397 28 32.079 28 31.7475Z" fill="white"/>
</svg>
